# xmcd
#
# Track frame offsets:
#	150
#	30030
#	54271
#	81733
#	106194
#	126660
#	152155
#	179884
#	199999
#
# Disc length: 3280 seconds
#
# Revision: 1
# Processed by: cddbd v1.5.2PL0 Copyright (c) Steve Scherf et al.
# Submitted via: EasyCDDAExtractor 6.2.0.3
#
DISCID=7c0cce09
DTITLE=Theodor Bastard - Sueta
DYEAR=2006
DGENRE=Trip-Hop
TTITLE0=Sueta
TTITLE1=1,000,000
TTITLE2=Alteya
TTITLE3=In Trance
TTITLE4=Under the Rain
TTITLE5=Satellite
TTITLE6=Aliah
TTITLE7=Weeper
TTITLE8=AlBor
EXTD=
EXTT0=
EXTT1=
EXTT2=
EXTT3=
EXTT4=
EXTT5=
EXTT6=
EXTT7=
EXTT8=
PLAYORDER=
